<?xml version="1.0" encoding="UTF-8" standalone="no"?>
<!-- Created with Inkscape (http://www.inkscape.org/) -->

<svg
   xmlns:dc="http://purl.org/dc/elements/1.1/"
   xmlns:cc="http://creativecommons.org/ns#"
   xmlns:rdf="http://www.w3.org/1999/02/22-rdf-syntax-ns#"
   xmlns:svg="http://www.w3.org/2000/svg"
   xmlns="http://www.w3.org/2000/svg"
   xmlns:sodipodi="http://sodipodi.sourceforge.net/DTD/sodipodi-0.dtd"
   xmlns:inkscape="http://www.inkscape.org/namespaces/inkscape"
   width="256"
   height="256"
   id="svg2"
   version="1.1"
   inkscape:version="0.92.2 (5c3e80d, 2017-08-06)"
   sodipodi:docname="hashthat.svg">
  <defs
     id="defs4">
    <linearGradient
       id="linearGradient2820">
      <stop
         style="stop-color:#0020a8;stop-opacity:1;"
         offset="0"
         id="stop2822" />
      <stop
         style="stop-color:#0cedf1;stop-opacity:1;"
         offset="1"
         id="stop2824" />
    </linearGradient>
    <inkscape:perspective
       sodipodi:type="inkscape:persp3d"
       inkscape:vp_x="0 : 526.18109 : 1"
       inkscape:vp_y="0 : 1000 : 0"
       inkscape:vp_z="744.09448 : 526.18109 : 1"
       inkscape:persp3d-origin="372.04724 : 350.78739 : 1"
       id="perspective10" />
  </defs>
  <sodipodi:namedview
     id="base"
     pagecolor="#ffffff"
     bordercolor="#666666"
     borderopacity="1.0"
     inkscape:pageopacity="0.0"
     inkscape:pageshadow="2"
     inkscape:zoom="2.8284271"
     inkscape:cx="217.70087"
     inkscape:cy="117.20936"
     inkscape:document-units="px"
     inkscape:current-layer="layer1"
     showgrid="false"
     inkscape:window-width="1981"
     inkscape:window-height="1097"
     inkscape:window-x="67"
     inkscape:window-y="27"
     inkscape:window-maximized="1" />
  <metadata
     id="metadata7">
    <rdf:RDF>
      <cc:Work
         rdf:about="">
        <dc:format>image/svg+xml</dc:format>
        <dc:type
           rdf:resource="http://purl.org/dc/dcmitype/StillImage" />
        <dc:title />
      </cc:Work>
    </rdf:RDF>
  </metadata>
  <g
     inkscape:label="Layer 1"
     inkscape:groupmode="layer"
     id="layer1"
     transform="translate(-182.41258,-116.36218)">
    <rect
       style="opacity:0.50000000000000000;fill:#004bff;fill-opacity:0;stroke:none"
       id="rect3618"
       width="256"
       height="256"
       x="182.41258"
       y="116.36218" />
    <g
       id="g3620"
       transform="matrix(0.92248197,0,0,0.92248197,15.753037,-49.489139)"
       style="stroke-width:8.67225622;stroke-miterlimit:4;stroke-dasharray:none">
      <text
         transform="scale(1.0003289,0.99967126)"
         xml:space="preserve"
         style="font-style:normal;font-variant:normal;font-weight:bold;font-stretch:normal;line-height:0%;font-family:'DejaVu Sans';-inkscape-font-specification:'DejaVu Sans Bold';text-align:start;writing-mode:lr-tb;text-anchor:start;opacity:0.5;fill:#000000;fill-opacity:1;stroke:none;stroke-width:8.67225552;stroke-miterlimit:4;stroke-dasharray:none"
         x="188.0974"
         y="448.78094"
         id="text2828"><tspan
           sodipodi:role="line"
           id="tspan2830"
           x="188.0974"
           y="448.78094"
           style="font-size:335.99765015px;line-height:1;fill:#000000;fill-opacity:1;stroke-width:8.67225552;stroke-miterlimit:4;stroke-dasharray:none">#</tspan></text>
      <text
         transform="scale(1.0003289,0.99967126)"
         id="text2816"
         y="430.22943"
         x="169.54588"
         style="font-style:normal;font-variant:normal;font-weight:bold;font-stretch:normal;line-height:0%;font-family:'DejaVu Sans';-inkscape-font-specification:'DejaVu Sans Bold';text-align:start;writing-mode:lr-tb;text-anchor:start;fill:#004bff;fill-opacity:1;stroke:#ffffff;stroke-width:8.67225552;stroke-linecap:round;stroke-miterlimit:4;stroke-dasharray:none;stroke-opacity:1"
         xml:space="preserve"><tspan
           style="font-size:335.99765015px;line-height:1;fill:#004bff;fill-opacity:1;stroke:#ffffff;stroke-width:8.67225552;stroke-linecap:round;stroke-miterlimit:4;stroke-dasharray:none;stroke-opacity:1"
           y="430.22943"
           x="169.54588"
           id="tspan2818"
           sodipodi:role="line">#</tspan></text>
    </g>
    <path
       style="fill:#0000ff;stroke-width:0.35355338"
       d="m 51.033497,198.16993 c 3.956804,-15.79942 7.198825,-28.84554 7.204492,-28.99138 0.0057,-0.14584 -9.694738,-0.26516 -21.556454,-0.26516 H 15.114778 V 156.7158 144.5182 h 24.311043 24.311041 l 6.286476,-24.66035 c 3.457558,-13.56319 6.279656,-24.779669 6.271323,-24.92551 -0.0083,-0.145841 -9.879286,-0.265165 -21.935456,-0.265165 H 32.438894 V 82.823136 70.979098 H 57.527559 82.61622 l 0.35081,-1.325825 c 0.192945,-0.729204 3.480479,-13.854874 7.305633,-29.168155 l 6.954823,-27.84233 h 12.506984 c 8.18125,0 12.50699,0.123451 12.50699,0.356934 0,0.196314 -3.18198,13.081813 -7.07107,28.634444 -3.88909,15.55263 -7.07107,28.517681 -7.07107,28.811222 0,0.4707 2.84886,0.533703 24.13002,0.533646 l 24.13002,-6.3e-5 7.04904,-28.019043 c 3.87697,-15.410474 7.18575,-28.536115 7.35285,-29.168091 l 0.30381,-1.149049 h 12.35775 c 8.6561,0 12.35775,0.115025 12.35775,0.384005 0,0.31693 -13.7896,55.359945 -14.36344,57.333586 -0.16994,0.584467 1.0154,0.618719 21.41068,0.618719 h 21.59059 v 11.844038 11.844039 h -24.40277 -24.40276 l -0.33357,0.795495 c -0.29645,0.706983 -12.37919,48.40555 -12.37919,48.86886 0,0.10267 9.94368,0.18667 22.09708,0.18667 h 22.09709 v 12.1976 12.19759 h -25.05855 -25.05856 l -7.22474,28.90299 -7.22474,28.90299 -12.44121,0.0929 c -6.84267,0.0511 -12.44121,0.003 -12.44121,-0.1076 0,-0.31952 14.13086,-56.6434 14.3624,-57.24681 0.1869,-0.48703 -2.36036,-0.54448 -24.13872,-0.54448 H 83.521275 l -7.24176,28.99138 -7.24176,28.99137 H 56.438533 43.839313 Z M 137.82429,143.0156 c 2.99832,-11.06141 12.20417,-47.885231 12.02131,-48.085752 -0.13425,-0.147213 -11.03768,-0.226763 -24.22982,-0.176777 l -23.98573,0.09088 -6.300569,24.571959 c -3.465311,13.51458 -6.305399,24.69129 -6.311307,24.83713 -0.0059,0.14584 10.881416,0.26516 24.194046,0.26516 H 137.417 Z"
       id="path3802"
       inkscape:connector-curvature="0"
       transform="translate(182.41258,116.36218)" />
    <path
       style="fill:#cccccc;stroke-width:0.35355338"
       d="m 51.050945,198.34671 c 3.941583,-15.70219 7.173454,-28.74831 7.181932,-28.99138 0.01217,-0.34889 -4.525416,-0.44194 -21.551342,-0.44194 H 15.114778 V 156.7158 144.5182 h 24.337658 24.337657 l 6.244711,-24.52026 c 3.434591,-13.48614 6.244711,-24.702624 6.244711,-24.925511 0,-0.300277 -5.678198,-0.405254 -21.92031,-0.405254 H 32.438894 V 82.823136 70.979098 H 57.527559 82.61622 l 0.35081,-1.325825 c 0.192945,-0.729204 3.483201,-13.865767 7.311686,-29.192363 l 6.960876,-27.866537 12.295138,0.112596 c 6.76233,0.06193 12.3734,0.192145 12.46904,0.289373 0.0956,0.09723 -2.99795,12.977833 -6.87465,28.623569 -3.87671,15.645735 -6.96978,28.65208 -6.8735,28.90299 0.14059,0.366362 4.90281,0.456197 24.18367,0.456197 h 24.0086 l 3.77248,-15.114408 c 2.07487,-8.312924 5.38281,-21.449584 7.351,-29.192579 l 3.57851,-14.078171 12.10955,0.112813 c 6.66025,0.06205 12.19441,0.197869 12.29812,0.301827 0.10371,0.103958 -3.04587,13.070529 -6.99906,28.814602 -3.95319,15.744073 -7.11803,28.74491 -7.03298,28.890751 0.0851,0.145841 9.77075,0.265165 21.52376,0.265165 h 21.36912 v 11.844038 11.844039 h -24.40277 -24.40276 l -0.34669,0.795495 c -0.31924,0.732524 -12.36607,48.29405 -12.36607,48.82192 0,0.12849 9.94368,0.23361 22.09708,0.23361 h 22.09709 v 12.1976 12.19759 h -25.04842 -25.04843 l -6.04699,23.95324 c -3.32585,13.17428 -6.58114,26.10108 -7.23398,28.72621 l -1.18698,4.77297 -3.51488,0.22364 c -4.49274,0.28586 -20.08867,0.36892 -20.76189,0.11058 -0.41494,-0.15922 0.83438,-5.5766 6.64212,-28.80214 3.93426,-15.73332 7.06804,-28.69119 6.96396,-28.79527 -0.10408,-0.10408 -11.0226,-0.18923 -24.26337,-0.18923 H 83.521275 l -7.24176,28.99138 -7.24176,28.99137 H 56.461094 43.88443 Z m 86.704915,-54.97756 c 1.17142,-3.67322 12.06276,-47.151721 12.06276,-48.154855 0,-0.495826 -2.45564,-0.542778 -24.12088,-0.461185 l -24.12089,0.09084 -6.09923,23.86486 c -3.354575,13.12567 -6.195334,24.30237 -6.312799,24.83712 l -0.213567,0.97227 h 24.219076 24.21909 z"
       id="path3866"
       inkscape:connector-curvature="0"
       transform="translate(182.41258,116.36218)" />
    <path
       style="fill:#cccccc;stroke-width:0.35355338"
       d="m 44.196403,226.23567 c 3.777951,-14.44691 14.06659,-56.42046 13.922156,-56.79685 -0.175317,-0.45687 -2.994339,-0.52543 -21.602704,-0.52543 H 15.114778 v -12.19517 -12.19518 l 24.456687,-0.0908 24.456686,-0.0908 6.122095,-24.21841 c 3.367151,-13.32012 6.123707,-24.496831 6.12568,-24.837126 0.0034,-0.582642 -1.27457,-0.618719 -21.916721,-0.618719 H 32.438894 V 82.823136 70.979098 h 25.192875 25.192875 l 7.205814,-28.90299 c 3.963199,-15.896644 7.303289,-29.01014 7.422425,-29.1411 0.119137,-0.130961 5.662687,-0.146452 12.319007,-0.03442 12.05833,0.202946 12.10178,0.206387 11.934,0.945217 -0.0926,0.407841 -2.64703,10.923868 -5.67647,23.368947 -7.27572,29.88905 -7.91955,32.673361 -7.69218,33.265867 0.16496,0.429868 3.70592,0.490103 24.25107,0.412537 l 24.05791,-0.09083 7.28664,-28.991378 7.28665,-28.991378 3.26491,0.0084 c 1.79571,0.0046 7.24542,0.04441 12.11049,0.08839 l 8.84557,0.07997 -0.17412,0.795495 c -0.0958,0.437522 -3.20494,13.125669 -6.90928,28.195883 -3.70433,15.070213 -6.81402,27.75836 -6.91041,28.195883 l -0.17527,0.795495 h 21.57349 21.5735 v 11.844038 11.844039 h -24.54814 c -23.07255,0 -24.55933,0.03719 -24.73432,0.618719 -1.07526,3.573254 -12.23583,47.987408 -12.23583,48.693188 0,0.47738 2.5308,0.53912 22.09708,0.53912 h 22.09709 v 12.19524 12.19523 l -25.154,0.0907 -25.154,0.0907 -7.15812,28.39358 c -3.93697,15.61646 -7.26783,28.50348 -7.40192,28.63782 -0.13409,0.13434 -5.5765,0.29556 -12.09424,0.35827 l -11.85043,0.11401 0.25716,-1.52822 c 0.3207,-1.90578 2.4223,-10.6502 8.05724,-33.52482 2.41905,-9.81994 4.64053,-18.92836 4.93664,-20.24093 l 0.53836,-2.38648 H 107.7244 83.377838 l -0.350555,1.32582 c -0.192807,0.72921 -3.308853,13.17871 -6.924545,27.66556 -3.615691,14.48685 -6.731738,26.93634 -6.924545,27.66555 l -0.350555,1.32582 H 56.42566 c -11.93603,0 -12.395486,-0.0248 -12.229257,-0.66047 z m 93.647087,-82.68974 c 0.92411,-2.35369 12.08696,-47.723809 11.87674,-48.271637 -0.21701,-0.565537 -1.87665,-0.607118 -24.23255,-0.607118 H 101.4881 l -1.982058,7.689785 c -5.271813,20.45307 -10.498605,41.18795 -10.498605,41.64835 0,0.44317 3.293629,0.51289 24.227153,0.51289 h 24.22716 z"
       id="path3868"
       inkscape:connector-curvature="0"
       transform="translate(182.41258,116.36218)" />
    <path
       style="fill:#999999;stroke-width:0.35355338"
       d="m 44.106156,226.74694 c 0,-0.0821 3.197397,-12.98019 7.105327,-28.66249 3.907929,-15.68231 6.997176,-28.62151 6.864993,-28.75379 -0.132183,-0.13227 -9.85264,-0.28388 -21.601016,-0.33691 l -21.360682,-0.0964 V 156.70777 144.5182 h 24.378566 24.378565 l 0.371004,-1.32582 c 0.629753,-2.2505 11.277445,-44.352472 11.683388,-46.197215 0.300389,-1.36507 0.28449,-1.800007 -0.07412,-2.027519 -0.2511,-0.159304 -10.121812,-0.292081 -21.934915,-0.295058 l -21.478369,-0.0054 V 82.825491 70.983811 l 25.190679,-0.09075 25.19068,-0.09074 7.272565,-28.991378 7.272565,-28.991378 12.172864,0.133706 c 6.69508,0.07354 12.21062,0.164319 12.25676,0.201734 0.0936,0.07592 -1.57615,7.046313 -8.38908,35.019899 -2.5574,10.500536 -4.73921,19.83926 -4.84848,20.752718 -0.1833,1.532304 -0.13348,1.676656 0.64387,1.865305 0.4634,0.112458 11.33109,0.160581 24.15043,0.106932 l 23.30788,-0.09754 7.27449,-28.991378 7.27448,-28.991378 12.02082,0.133482 c 6.61144,0.07342 12.05741,0.163044 12.10213,0.199174 0.10907,0.0881 -2.35666,10.302177 -8.54001,35.376236 -2.82924,11.472808 -5.22869,21.217623 -5.3321,21.655146 l -0.18804,0.795495 h 21.57349 21.5735 v 11.844038 11.844039 h -24.38275 c -23.5669,0 -24.39474,0.02241 -24.74115,0.669697 -0.34458,0.643849 -9.1956,35.05511 -11.36112,44.17008 -0.82946,3.4913 -0.95648,4.48823 -0.60066,4.71405 0.2482,0.1575 10.19608,0.28881 22.10641,0.29179 l 21.65515,0.005 v 12.1976 12.19759 H 182.0056 156.91694 l -0.40572,1.5026 c -0.22314,0.82643 -3.47069,13.6403 -7.21676,28.47526 -3.74607,14.83497 -6.92376,27.08559 -7.06154,27.22361 -0.13777,0.13803 -5.58944,0.3023 -12.11482,0.36506 l -11.86433,0.11412 0.24248,-1.52833 c 0.13338,-0.84058 3.17844,-13.49364 6.76682,-28.11792 3.58838,-14.62427 6.52433,-26.91467 6.52433,-27.312 0,-0.72047 -0.0648,-0.7224 -24.20478,-0.7224 H 83.377838 l -0.350555,1.32582 c -0.192807,0.72921 -3.308853,13.17871 -6.924545,27.66556 -3.615691,14.48685 -6.731738,26.93634 -6.924545,27.66555 l -0.350555,1.32582 H 56.466899 c -6.798409,0 -12.360743,-0.0671 -12.360743,-0.1492 z m 93.502094,-82.56161 c 0.32725,-0.52951 6.18184,-23.44499 9.38592,-36.73754 2.41574,-10.021979 2.8412,-12.199508 2.43401,-12.45734 -0.27282,-0.17275 -11.10449,-0.314867 -24.2259,-0.317862 l -23.73246,-0.0054 -1.41021,5.568462 c -0.77561,3.06266 -3.58689,14.12351 -6.247287,24.57967 -2.660397,10.45617 -4.7409,19.16684 -4.623343,19.35705 0.284999,0.46114 48.13437,0.47395 48.41927,0.013 z"
       id="path3870"
       inkscape:connector-curvature="0"
       transform="translate(182.41258,116.36218)" />
  </g>
</svg>
